<svg id="Layer_1" data-name="Layer 1" xmlns="http://www.w3.org/2000/svg" viewBox="0 0 291.09 674.28"><defs><style>.cls-1,.cls-2{fill:none;stroke-linecap:round;stroke-linejoin:round;}.cls-1{stroke:#000;stroke-width:0.84px;}.cls-2{stroke:#ff0;stroke-width:0.72px;}</style></defs><title>ft horns</title><path class="cls-1" d="M266.08,741.42a1.54,1.54,0,1,0-1.54,1.53,1.54,1.54,0,0,0,1.54-1.53" transform="translate(-229.43 -119.59)"/><path class="cls-1" d="M266.08,751a1.54,1.54,0,1,0-1.54,1.53,1.54,1.54,0,0,0,1.54-1.53" transform="translate(-229.43 -119.59)"/><path class="cls-1" d="M265.25,733l138.39,40.11,3.6,6.15H359.06V785l-5.67,8.49h-17L330.71,785h-17L308,793.45H291l-5.67-8.52v-5.64H273.74l0,0a13.57,13.57,0,0,0-11.26-12h0A6.55,6.55,0,0,1,257,760.8h0V739.24h0a6.44,6.44,0,0,1,8.23-6.19Z" transform="translate(-229.43 -119.59)"/><path class="cls-1" d="M371.09,323.72a3.62,3.62,0,0,0-7.23,0" transform="translate(-229.43 -119.59)"/><line class="cls-1" x1="134.43" y1="204.15" x2="134.43" y2="243.78"/><path class="cls-1" d="M363.86,363.35a3.62,3.62,0,1,0,7.23,0" transform="translate(-229.43 -119.59)"/><line class="cls-1" x1="141.63" y1="243.78" x2="141.63" y2="204.15"/><polyline class="cls-1" points="8.31 283.38 282.78 283.38 282.93 273.15 289.53 273.12 289.53 237.12 282.78 237.12 282.78 190.08 289.53 190.08 289.53 154.08 282.78 154.08 282.78 140.46 244.53 140.46 244.53 133.71 208.53 133.71 208.53 140.46 82.53 140.46 82.53 133.71 46.53 133.71 46.53 140.46 8.31 140.46 8.31 154.08 1.53 154.08 1.53 190.08 8.31 190.08 8.31 237.12 1.53 237.12 1.53 273.12 8.46 273.15 8.31 283.38"/><path class="cls-1" d="M271,375a3.62,3.62,0,0,0,0,7.23" transform="translate(-229.43 -119.59)"/><line class="cls-1" x1="41.52" y1="262.59" x2="81.12" y2="262.59"/><path class="cls-1" d="M310.57,382.18a3.62,3.62,0,0,0,0-7.23" transform="translate(-229.43 -119.59)"/><line class="cls-1" x1="81.12" y1="255.39" x2="41.52" y2="255.39"/><path class="cls-1" d="M255.89,323.72a3.62,3.62,0,0,0-7.23,0" transform="translate(-229.43 -119.59)"/><line class="cls-1" x1="19.23" y1="204.15" x2="19.23" y2="243.78"/><path class="cls-1" d="M248.66,363.35a3.62,3.62,0,1,0,7.23,0" transform="translate(-229.43 -119.59)"/><line class="cls-1" x1="26.43" y1="243.78" x2="26.43" y2="204.15"/><path class="cls-1" d="M271,304.9a3.62,3.62,0,0,0,0,7.23" transform="translate(-229.43 -119.59)"/><line class="cls-1" x1="41.52" y1="192.54" x2="81.12" y2="192.54"/><path class="cls-1" d="M310.57,312.13a3.62,3.62,0,0,0,0-7.23" transform="translate(-229.43 -119.59)"/><line class="cls-1" x1="81.12" y1="185.34" x2="41.52" y2="185.34"/><polyline class="cls-1" points="281.64 0.42 7.17 0.42 7.17 18.42 0.42 18.42 0.42 93.45 7.17 93.45 7.17 116.1 281.64 116.1 281.64 93.45 288.42 93.45 288.42 18.42 281.64 18.42 281.64 0.42"/><path class="cls-1" d="M260,137.41a3.37,3.37,0,0,0-3.37,3.38" transform="translate(-229.43 -119.59)"/><line class="cls-1" x1="27.12" y1="21.21" x2="27.12" y2="81.33"/><path class="cls-1" d="M256.58,200.91a3.37,3.37,0,0,0,3.37,3.37" transform="translate(-229.43 -119.59)"/><polyline class="cls-1" points="30.51 84.72 45.42 84.72 45.42 91.47 81.42 91.47 81.42 84.72 207.42 84.72 207.42 91.47 243.42 91.47 243.42 84.72 258.33 84.72"/><path class="cls-1" d="M487.77,204.28a3.37,3.37,0,0,0,3.38-3.37" transform="translate(-229.43 -119.59)"/><line class="cls-1" x1="261.72" y1="81.33" x2="261.72" y2="21.21"/><path class="cls-1" d="M491.15,140.79a3.38,3.38,0,0,0-3.38-3.38" transform="translate(-229.43 -119.59)"/><line class="cls-1" x1="258.33" y1="17.85" x2="30.51" y2="17.85"/><polyline class="cls-1" points="74.37 513.57 38.37 513.57 38.37 506.82 74.37 506.82 74.37 513.57"/><polyline class="cls-1" points="157.44 506.82 157.44 513.57 121.44 513.57 121.44 506.82 157.44 506.82"/><polyline class="cls-1" points="175.47 488.43 176.31 491.37 176.67 494.31 176.55 496.47 176.31 498.36 175.95 500.22 175.44 501.99 174.78 503.73 173.13 507 171 510.09 168.42 512.97 165.39 515.64 161.94 518.1 158.13 520.41 153.99 522.51 149.49 524.46 144.69 526.23 139.59 527.85 134.25 529.32 128.7 530.64 122.94 531.84 116.97 532.89 110.88 533.85 104.64 534.66 91.89 536.01 78.93 536.97 65.97 537.63 53.19 538.02 40.8 538.2 34.83 538.23 29.01 538.26 23.4 538.23 18 538.2 18 515.55 24.78 515.55 24.78 440.52 18 440.52 18 422.52 24.24 423.69 30.6 424.98 43.62 427.8 56.94 430.95 70.35 434.43 83.7 438.21 96.81 442.26 109.5 446.58 115.65 448.83 121.62 451.14 127.38 453.51 132.96 455.94 138.3 458.43 143.37 460.95 148.17 463.53 152.7 466.14 156.87 468.81 160.74 471.51 164.22 474.24 167.31 477.03 170.01 479.82 172.29 482.67 174.09 485.55 175.47 488.43"/><path class="cls-1" d="M493.1,684.19V678.1l.06,0,0,0,0,0,0-.06.06-.06,0-.06,0-.09,0-.12,0-.12,0-.12,0-.12v-.15l0-.15,0-.15v-.48l0-.36,0-.18v-.33l0-.15v-.15l0-.15,0-.12,0-.12,0-.12,0-.12,0-.09,0-.06,0-.09,0-.06-.06,0,0,0,0,0h0v-7.08h9V657h0a14.41,14.41,0,0,0-14.42-14.42v0h-7.2v0A14.41,14.41,0,0,0,466.1,657h0v10.08h9v7.08l-.06,0,0,0,0,0-.06.06,0,.06,0,.06,0,.09,0,.12,0,.12,0,.12,0,.12,0,.15v.15l0,.15v.33l0,.15v.36l0,.18v.33l0,.15v.15l0,.15,0,.12,0,.12,0,.12,0,.12,0,.09,0,.06,0,.09,0,.06.06,0,0,0,0,0h0v6.09h0a1.81,1.81,0,0,0,1.81,1.81h14.41a1.81,1.81,0,0,0,1.81-1.81Z" transform="translate(-229.43 -119.59)"/><line class="cls-2" x1="272.7" y1="638.73" x2="272.67" y2="638.76"/><line class="cls-1" x1="263.67" y1="665.67" x2="245.67" y2="665.67"/><path class="cls-1" d="M493.11,785.26a9,9,0,0,0,9-9l0,0V758.32h18V733.84h-72v24.48h18v17.92a9,9,0,0,0,9,9" transform="translate(-229.43 -119.59)"/><polyline class="cls-1" points="245.67 657.66 263.67 657.66 263.67 650.97 245.67 650.97 245.67 657.66"/><rect class="cls-1" x="81.02" y="573.24" width="28.35" height="28.35"/></svg>