solid Cameratray
facet normal -0.2539618660144088 0.0 -0.9672142320140247
  outer loop
    vertex -49.82747411785433 1.9999999999999962 0.12468067348988758
    vertex -61.81066514927339 0.0 3.271112409517305
    vertex -61.81066514927339 1.9999999999999962 3.271112409517305
  endloop
endfacet
facet normal -0.2539618660144088 0.0 -0.9672142320140247
  outer loop
    vertex -61.81066514927339 0.0 3.271112409517305
    vertex -49.82747411785433 1.9999999999999962 0.12468067348988758
    vertex -49.82747411785433 0.0 0.12468067348988758
  endloop
endfacet
facet normal -0.48375658414643025 -1.224380190683876e-15 -0.8752025864306948
  outer loop
    vertex -61.81066514927339 1.9999999999999962 3.271112409517305
    vertex -69.66206732896936 0.0 7.610870493070831
    vertex -69.66206732896936 1.9999999999999962 7.610870493070825
  endloop
endfacet
facet normal -0.48375658414643025 -1.224380190683876e-15 -0.8752025864306948
  outer loop
    vertex -69.66206732896936 0.0 7.610870493070831
    vertex -61.81066514927339 1.9999999999999962 3.271112409517305
    vertex -61.81066514927339 0.0 3.271112409517305
  endloop
endfacet
facet normal -0.8544441730964218 -7.268242048443035e-16 -0.5195432177033706
  outer loop
    vertex -72.8466205734513 1.9999999999999962 12.848207582545548
    vertex -69.66206732896936 0.0 7.610870493070831
    vertex -72.8466205734513 0.0 12.848207582545548
  endloop
endfacet
facet normal -0.8544441730964218 -7.268242048443035e-16 -0.5195432177033706
  outer loop
    vertex -69.66206732896936 0.0 7.610870493070831
    vertex -72.8466205734513 1.9999999999999962 12.848207582545548
    vertex -69.66206732896936 1.9999999999999962 7.610870493070825
  endloop
endfacet
facet normal -0.9593697309518155 0.0 0.2821519436995623
  outer loop
    vertex -71.14730284183085 1.9999999999999962 18.62620781040255
    vertex -72.8466205734513 0.0 12.848207582545548
    vertex -71.14730284183085 0.0 18.62620781040255
  endloop
endfacet
facet normal -0.9593697309518155 0.0 0.2821519436995623
  outer loop
    vertex -72.8466205734513 0.0 12.848207582545548
    vertex -71.14730284183085 1.9999999999999962 18.62620781040255
    vertex -72.8466205734513 1.9999999999999962 12.848207582545548
  endloop
endfacet
facet normal -0.6755057654829026 -0.0 0.7373547048736842
  outer loop
    vertex -64.67991982926281 0.0 24.551110009710147
    vertex -71.14730284183085 1.9999999999999962 18.62620781040255
    vertex -71.14730284183085 0.0 18.62620781040255
  endloop
endfacet
facet normal -0.6755057654829026 -0.0 0.7373547048736842
  outer loop
    vertex -71.14730284183085 1.9999999999999962 18.62620781040255
    vertex -64.67991982926281 0.0 24.551110009710147
    vertex -64.67991982926281 1.9999999999999962 24.551110009710147
  endloop
endfacet
facet normal -0.4648860297336848 -0.0 0.8853705322397236
  outer loop
    vertex -53.88521300019795 0.0 30.21914188694942
    vertex -64.67991982926281 1.9999999999999962 24.551110009710147
    vertex -64.67991982926281 0.0 24.551110009710147
  endloop
endfacet
facet normal -0.4648860297336848 -0.0 0.8853705322397236
  outer loop
    vertex -64.67991982926281 1.9999999999999962 24.551110009710147
    vertex -53.88521300019795 0.0 30.21914188694942
    vertex -53.88521300019795 1.9999999999999962 30.21914188694942
  endloop
endfacet
facet normal -0.3297457726969196 -0.0 0.9440697672251303
  outer loop
    vertex -39.49882378593977 0.0 35.244036436552065
    vertex -53.88521300019795 1.9999999999999962 30.21914188694942
    vertex -53.88521300019795 0.0 30.21914188694942
  endloop
endfacet
facet normal -0.3297457726969196 -0.0 0.9440697672251303
  outer loop
    vertex -53.88521300019795 1.9999999999999962 30.21914188694942
    vertex -39.49882378593977 0.0 35.244036436552065
    vertex -39.49882378593977 1.9999999999999962 35.244036436552065
  endloop
endfacet
facet normal -0.231201056213964 2.8325838810528225e-18 0.9729059932005494
  outer loop
    vertex -22.501160836808705 4.511946372076636e-14 39.28335539899367
    vertex -39.49882378593977 1.9999999999999962 35.244036436552065
    vertex -39.49882378593977 0.0 35.244036436552065
  endloop
endfacet
facet normal -0.231201056213964 2.8325838810528225e-18 0.9729059932005494
  outer loop
    vertex -39.49882378593977 1.9999999999999962 35.244036436552065
    vertex -22.501160836808705 4.511946372076636e-14 39.28335539899367
    vertex -22.501160836808705 1.9999999999999962 39.28335539899367
  endloop
endfacet
facet normal -0.1489109342942367 -0.0 0.9888506124019024
  outer loop
    vertex -4.0505867928214725 4.511946372076636e-14 42.06182586227378
    vertex -22.501160836808705 1.9999999999999962 39.28335539899367
    vertex -22.501160836808705 4.511946372076636e-14 39.28335539899367
  endloop
endfacet
facet normal -0.1489109342942367 -0.0 0.9888506124019024
  outer loop
    vertex -22.501160836808705 1.9999999999999962 39.28335539899367
    vertex -4.0505867928214725 4.511946372076636e-14 42.06182586227378
    vertex -4.0505867928214725 1.9999999999999962 42.06182586227378
  endloop
endfacet
facet normal 1.0 -0.0 3.222818837197593e-15
  outer loop
    vertex 1.9999999999999396 69.22005290974204 33.418180778717506
    vertex 1.9999999999999847 69.22005299595838 13.35753385793163
    vertex 1.9999999999999396 86.25368390974202 33.418180778717506
  endloop
endfacet
facet normal 1.0 -0.0 3.222818837197593e-15
  outer loop
    vertex 1.9999999999999847 69.22005299595838 13.35753385793163
    vertex 1.9999999999999396 69.22005290974204 33.418180778717506
    vertex 1.9999999999999847 69.22005299595838 10.618127851290067
  endloop
endfacet
facet normal 1.0 -0.0 3.222818837197593e-15
  outer loop
    vertex 1.9999999999999396 86.25368390974202 33.418180778717506
    vertex 1.9999999999999847 69.22005299595838 13.35753385793163
    vertex 1.9999999999999847 86.25368399595833 13.35753385793163
  endloop
endfacet
facet normal 1.0 -0.0 3.222818837197593e-15
  outer loop
    vertex 1.9999999999999396 86.25368390974202 33.418180778717506
    vertex 1.9999999999999847 86.25368399595833 13.35753385793163
    vertex 1.9999999999999396 86.25368390974202 36.15758678535908
  endloop
endfacet
facet normal 1.0 -0.0 3.222818837197593e-15
  outer loop
    vertex 2.0000000000000298 1.9999999999999962 0.0
    vertex 1.9999999999999847 8.539534982867902 10.644528326381991
    vertex 1.9999999999998945 1.9999999999999962 42.00000000000005
  endloop
endfacet
facet normal 1.0 -0.0 3.222818837197593e-15
  outer loop
    vertex 1.9999999999999847 8.539534982867902 10.644528326381991
    vertex 2.0000000000000298 1.9999999999999962 0.0
    vertex 2.0000000000000298 93.00000000000009 0.0
  endloop
endfacet
facet normal 1.0 -0.0 3.222818837197593e-15
  outer loop
    vertex 1.9999999999998945 1.9999999999999962 42.00000000000005
    vertex 1.9999999999999847 8.539534982867902 10.644528326381991
    vertex 1.9999999999999396 8.539534896651556 33.44458125380943
  endloop
endfacet
facet normal 1.0 -0.0 3.222818837197593e-15
  outer loop
    vertex 1.9999999999999847 8.539534982867902 10.644528326381991
    vertex 2.0000000000000298 93.00000000000009 0.0
    vertex 1.9999999999999847 25.573165982867945 10.644528326381991
  endloop
endfacet
facet normal 1.0 -0.0 3.222818837197593e-15
  outer loop
    vertex 1.9999999999999847 25.573165982867945 10.644528326381991
    vertex 2.0000000000000298 93.00000000000009 0.0
    vertex 1.9999999999999847 25.573165982867945 13.383934333023547
  endloop
endfacet
facet normal 1.0 -0.0 3.222818837197593e-15
  outer loop
    vertex 1.9999999999999847 25.573165982867945 13.383934333023547
    vertex 2.0000000000000298 93.00000000000009 0.0
    vertex 1.9999999999999847 69.22005299595838 10.618127851290067
  endloop
endfacet
facet normal 1.0 -0.0 3.222818837197593e-15
  outer loop
    vertex 1.9999999999999847 25.573165982867945 13.383934333023547
    vertex 1.9999999999999847 69.22005299595838 10.618127851290067
    vertex 1.9999999999999396 69.22005290974204 33.418180778717506
  endloop
endfacet
facet normal 1.0 -0.0 3.222818837197593e-15
  outer loop
    vertex 1.9999999999999847 69.22005299595838 10.618127851290067
    vertex 2.0000000000000298 93.00000000000009 0.0
    vertex 1.9999999999999847 86.25368399595833 10.618127851290067
  endloop
endfacet
facet normal 1.0 -0.0 3.222818837197593e-15
  outer loop
    vertex 1.9999999999999847 86.25368399595833 10.618127851290067
    vertex 2.0000000000000298 93.00000000000009 0.0
    vertex 1.9999999999999847 86.25368399595833 13.35753385793163
  endloop
endfacet
facet normal 1.0 -0.0 3.222818837197593e-15
  outer loop
    vertex 1.9999999999998945 1.9999999999999962 42.00000000000005
    vertex 1.9999999999999396 8.539534896651556 36.183987260451
    vertex 1.9999999999998945 93.00000000000009 42.00000000000005
  endloop
endfacet
facet normal 1.0 -0.0 3.222818837197593e-15
  outer loop
    vertex 1.9999999999999396 8.539534896651556 36.183987260451
    vertex 1.9999999999998945 1.9999999999999962 42.00000000000005
    vertex 1.9999999999999396 8.539534896651556 33.44458125380943
  endloop
endfacet
facet normal 1.0 -0.0 3.222818837197593e-15
  outer loop
    vertex 1.9999999999998945 93.00000000000009 42.00000000000005
    vertex 1.9999999999999396 8.539534896651556 36.183987260451
    vertex 1.9999999999999396 25.5731658966516 36.183987260451
  endloop
endfacet
facet normal 1.0 -0.0 3.222818837197593e-15
  outer loop
    vertex 1.9999999999998945 93.00000000000009 42.00000000000005
    vertex 1.9999999999999396 25.5731658966516 36.183987260451
    vertex 1.9999999999999396 69.22005290974204 36.15758678535908
  endloop
endfacet
facet normal 1.0 -0.0 3.222818837197593e-15
  outer loop
    vertex 1.9999999999999396 69.22005290974204 36.15758678535908
    vertex 1.9999999999999396 25.5731658966516 36.183987260451
    vertex 1.9999999999999847 25.573165982867945 13.383934333023547
  endloop
endfacet
facet normal 1.0 -0.0 3.222818837197593e-15
  outer loop
    vertex 1.9999999999999396 69.22005290974204 36.15758678535908
    vertex 1.9999999999999847 25.573165982867945 13.383934333023547
    vertex 1.9999999999999396 69.22005290974204 33.418180778717506
  endloop
endfacet
facet normal 1.0 -0.0 3.222818837197593e-15
  outer loop
    vertex 1.9999999999998945 93.00000000000009 42.00000000000005
    vertex 1.9999999999999396 69.22005290974204 36.15758678535908
    vertex 1.9999999999999396 86.25368390974202 36.15758678535908
  endloop
endfacet
facet normal 1.0 -0.0 3.222818837197593e-15
  outer loop
    vertex 1.9999999999998945 93.00000000000009 42.00000000000005
    vertex 1.9999999999999396 86.25368390974202 36.15758678535908
    vertex 1.9999999999999847 86.25368399595833 13.35753385793163
  endloop
endfacet
facet normal 1.0 -0.0 3.222818837197593e-15
  outer loop
    vertex 1.9999999999998945 93.00000000000009 42.00000000000005
    vertex 1.9999999999999847 86.25368399595833 13.35753385793163
    vertex 2.0000000000000298 93.00000000000009 0.0
  endloop
endfacet
facet normal 1.0 -0.0 3.222818837197593e-15
  outer loop
    vertex 1.9999999999999396 8.539534896651556 33.44458125380943
    vertex 1.9999999999999847 8.539534982867902 13.383934333023547
    vertex 1.9999999999999396 25.5731658966516 33.44458125380943
  endloop
endfacet
facet normal 1.0 -0.0 3.222818837197593e-15
  outer loop
    vertex 1.9999999999999847 8.539534982867902 13.383934333023547
    vertex 1.9999999999999396 8.539534896651556 33.44458125380943
    vertex 1.9999999999999847 8.539534982867902 10.644528326381991
  endloop
endfacet
facet normal 1.0 -0.0 3.222818837197593e-15
  outer loop
    vertex 1.9999999999999396 25.5731658966516 33.44458125380943
    vertex 1.9999999999999847 8.539534982867902 13.383934333023547
    vertex 1.9999999999999847 25.573165982867945 13.383934333023547
  endloop
endfacet
facet normal 1.0 -0.0 3.222818837197593e-15
  outer loop
    vertex 1.9999999999999396 25.5731658966516 33.44458125380943
    vertex 1.9999999999999847 25.573165982867945 13.383934333023547
    vertex 1.9999999999999396 25.5731658966516 36.183987260451
  endloop
endfacet
facet normal 0.7071067811865416 0.7071067811865535 1.9003782965427187e-15
  outer loop
    vertex -9.023892744153272e-14 95.00000000000006 42.00000000000004
    vertex 2.0000000000000298 93.00000000000009 0.0
    vertex 0.0 95.00000000000006 0.0
  endloop
endfacet
facet normal 0.7071067811865416 0.7071067811865535 1.9003782965427187e-15
  outer loop
    vertex 2.0000000000000298 93.00000000000009 0.0
    vertex -9.023892744153272e-14 95.00000000000006 42.00000000000004
    vertex 1.9999999999998945 93.00000000000009 42.00000000000005
  endloop
endfacet
facet normal 0.7071067811865456 -0.7071067811865495 1.9003782965427298e-15
  outer loop
    vertex 1.9999999999998945 1.9999999999999962 42.00000000000005
    vertex 0.0 0.0 0.0
    vertex 2.0000000000000298 1.9999999999999962 0.0
  endloop
endfacet
facet normal 0.7071067811865456 -0.7071067811865495 1.9003782965427298e-15
  outer loop
    vertex 0.0 0.0 0.0
    vertex 1.9999999999998945 1.9999999999999962 42.00000000000005
    vertex -9.023892744153272e-14 0.0 42.00000000000004
  endloop
endfacet
facet normal -1.0 0.0 -2.148545891465062e-15
  outer loop
    vertex -9.023892744153272e-14 95.00000000000006 42.00000000000004
    vertex 0.0 93.00000000000009 0.0
    vertex -9.023892744153272e-14 93.00000000000009 42.00000000000004
  endloop
endfacet
facet normal -1.0 0.0 -2.148545891465062e-15
  outer loop
    vertex 0.0 93.00000000000009 0.0
    vertex -9.023892744153272e-14 95.00000000000006 42.00000000000004
    vertex 0.0 95.00000000000006 0.0
  endloop
endfacet
facet normal 0.015261655862200164 -5.941891280950858e-19 0.9998835341480246
  outer loop
    vertex -9.023892744153272e-14 0.0 42.00000000000004
    vertex -4.0505867928214725 1.9999999999999962 42.06182586227378
    vertex -4.0505867928214725 4.511946372076636e-14 42.06182586227378
  endloop
endfacet
facet normal 0.015261655862200164 -5.941891280950858e-19 0.9998835341480246
  outer loop
    vertex -4.0505867928214725 1.9999999999999962 42.06182586227378
    vertex -9.023892744153272e-14 0.0 42.00000000000004
    vertex -9.023892744153272e-14 1.9999999999999962 42.00000000000004
  endloop
endfacet
facet normal -5.639932965095838e-15 -7.096395968583961e-34 1.0
  outer loop
    vertex 1.9999999999998945 1.9999999999999962 42.00000000000005
    vertex -9.023892744153272e-14 1.9999999999999962 42.00000000000004
    vertex -9.023892744153272e-14 0.0 42.00000000000004
  endloop
endfacet
facet normal -5.639932965095838e-15 -7.096395968583961e-34 1.0
  outer loop
    vertex -9.023892744153272e-14 1.9999999999999962 42.00000000000004
    vertex 1.9999999999998945 1.9999999999999962 42.00000000000005
    vertex -9.023892744153272e-14 93.00000000000009 42.00000000000004
  endloop
endfacet
facet normal -5.639932965095838e-15 -7.096395968583961e-34 1.0
  outer loop
    vertex -9.023892744153272e-14 93.00000000000009 42.00000000000004
    vertex 1.9999999999998945 1.9999999999999962 42.00000000000005
    vertex -9.023892744153272e-14 95.00000000000006 42.00000000000004
  endloop
endfacet
facet normal -5.639932965095838e-15 -7.096395968583961e-34 1.0
  outer loop
    vertex -9.023892744153272e-14 95.00000000000006 42.00000000000004
    vertex 1.9999999999998945 1.9999999999999962 42.00000000000005
    vertex 1.9999999999998945 93.00000000000009 42.00000000000005
  endloop
endfacet
facet normal 0.0025022396854564727 3.6251733858349257e-16 0.999996869393378
  outer loop
    vertex 0.0 92.95973100000008 -5.639932965095795e-15
    vertex -49.82747411785433 95.00000000000006 0.12468067348988758
    vertex -49.82747411785433 93.00000000000009 0.12468067348989322
  endloop
endfacet
facet normal 0.0025022396854564727 3.6251733858349257e-16 0.999996869393378
  outer loop
    vertex -49.82747411785433 95.00000000000006 0.12468067348988758
    vertex 0.0 92.95973100000008 -5.639932965095795e-15
    vertex 0.0 95.00000000000006 0.0
  endloop
endfacet
facet normal 0.0025022396854564727 3.6251733858349257e-16 0.999996869393378
  outer loop
    vertex 0.0 95.00000000000006 0.0
    vertex 0.0 92.95973100000008 -5.639932965095795e-15
    vertex 0.0 93.00000000000009 0.0
  endloop
endfacet
facet normal 6.96340949856123e-05 0.0 -0.9999999975755465
  outer loop
    vertex 1.9999999999999396 86.25368390974202 36.15758678535908
    vertex -0.0003516671207101751 69.22005290974204 36.157447492680745
    vertex -0.0003516671207101751 86.25368390974202 36.157447492680745
  endloop
endfacet
facet normal 6.96340949856123e-05 0.0 -0.9999999975755465
  outer loop
    vertex -0.0003516671207101751 69.22005290974204 36.157447492680745
    vertex 1.9999999999999396 86.25368390974202 36.15758678535908
    vertex 1.9999999999999396 69.22005290974204 36.15758678535908
  endloop
endfacet
facet normal 0.0 -1.0 0.0
  outer loop
    vertex 1.9999999999999396 86.25368390974202 33.418180778717506
    vertex -0.0003516671207101751 86.25368390974202 36.157447492680745
    vertex -0.0001609110630909072 86.25368390974202 33.418041499322314
  endloop
endfacet
facet normal 0.0 -1.0 0.0
  outer loop
    vertex -0.0003516671207101751 86.25368390974202 36.157447492680745
    vertex 1.9999999999999396 86.25368390974202 33.418180778717506
    vertex 1.9999999999999396 86.25368390974202 36.15758678535908
  endloop
endfacet
facet normal -6.96340949802066e-05 -0.0 0.9999999975755465
  outer loop
    vertex 1.9999999999999396 69.22005290974204 33.418180778717506
    vertex -0.0001609110630909072 86.25368390974202 33.418041499322314
    vertex -0.0001609110630909072 69.22005290974204 33.418041499322314
  endloop
endfacet
facet normal -6.96340949802066e-05 -0.0 0.9999999975755465
  outer loop
    vertex -0.0001609110630909072 86.25368390974202 33.418041499322314
    vertex 1.9999999999999396 69.22005290974204 33.418180778717506
    vertex 1.9999999999999396 86.25368390974202 33.418180778717506
  endloop
endfacet
facet normal -0.0 1.0 -0.0
  outer loop
    vertex -0.0003516671207101751 69.22005290974204 36.157447492680745
    vertex 1.9999999999999396 69.22005290974204 33.418180778717506
    vertex -0.0001609110630909072 69.22005290974204 33.418041499322314
  endloop
endfacet
facet normal -0.0 1.0 -0.0
  outer loop
    vertex 1.9999999999999396 69.22005290974204 33.418180778717506
    vertex -0.0003516671207101751 69.22005290974204 36.157447492680745
    vertex 1.9999999999999396 69.22005290974204 36.15758678535908
  endloop
endfacet
facet normal 6.963409498352917e-05 0.0 -0.9999999975755465
  outer loop
    vertex 1.9999999999999396 25.5731658966516 36.183987260451
    vertex 0.007785093340789828 8.539534896651556 36.18384853436862
    vertex 0.007785093340789828 25.5731658966516 36.18384853436862
  endloop
endfacet
facet normal 6.963409498352917e-05 0.0 -0.9999999975755465
  outer loop
    vertex 0.007785093340789828 8.539534896651556 36.18384853436862
    vertex 1.9999999999999396 25.5731658966516 36.183987260451
    vertex 1.9999999999999396 8.539534896651556 36.183987260451
  endloop
endfacet
facet normal 0.0 -1.0 0.0
  outer loop
    vertex 1.9999999999999396 25.5731658966516 33.44458125380943
    vertex 0.007785093340789828 25.5731658966516 36.18384853436862
    vertex 0.007975849398409096 25.5731658966516 33.44444254101018
  endloop
endfacet
facet normal 0.0 -1.0 0.0
  outer loop
    vertex 0.007785093340789828 25.5731658966516 36.18384853436862
    vertex 1.9999999999999396 25.5731658966516 33.44458125380943
    vertex 1.9999999999999396 25.5731658966516 36.183987260451
  endloop
endfacet
facet normal -6.963409498093247e-05 3.311058752476526e-16 0.9999999975755465
  outer loop
    vertex 1.9999999999999396 8.539534896651556 33.44458125380943
    vertex 0.007975849398409096 25.5731658966516 33.44444254101018
    vertex 0.007975849398409096 8.539534896651556 33.4444425410102
  endloop
endfacet
facet normal -6.963409498093247e-05 3.311058752476526e-16 0.9999999975755465
  outer loop
    vertex 0.007975849398409096 25.5731658966516 33.44444254101018
    vertex 1.9999999999999396 8.539534896651556 33.44458125380943
    vertex 1.9999999999999396 25.5731658966516 33.44458125380943
  endloop
endfacet
facet normal -0.0 1.0 -0.0
  outer loop
    vertex 0.007785093340789828 8.539534896651556 36.18384853436862
    vertex 1.9999999999999396 8.539534896651556 33.44458125380943
    vertex 0.007975849398409096 8.539534896651556 33.4444425410102
  endloop
endfacet
facet normal -0.0 1.0 -0.0
  outer loop
    vertex 1.9999999999999396 8.539534896651556 33.44458125380943
    vertex 0.007785093340789828 8.539534896651556 36.18384853436862
    vertex 1.9999999999999396 8.539534896651556 36.183987260451
  endloop
endfacet
facet normal 0.0 -1.0 0.0
  outer loop
    vertex 1.9999999999999847 25.573165982867945 10.644528326381991
    vertex 0.011863877890148089 25.573165982867945 13.383795890963645
    vertex 0.012054633947722236 25.573165982867945 10.644389897605214
  endloop
endfacet
facet normal 0.0 -1.0 0.0
  outer loop
    vertex 0.011863877890148089 25.573165982867945 13.383795890963645
    vertex 1.9999999999999847 25.573165982867945 10.644528326381991
    vertex 1.9999999999999847 25.573165982867945 13.383934333023547
  endloop
endfacet
facet normal -6.963409498311697e-05 -0.0 0.9999999975755465
  outer loop
    vertex 1.9999999999999847 8.539534982867902 10.644528326381991
    vertex 0.012054633947722236 25.573165982867945 10.644389897605214
    vertex 0.012054633947722236 8.539534982867902 10.644389897605214
  endloop
endfacet
facet normal -6.963409498311697e-05 -0.0 0.9999999975755465
  outer loop
    vertex 0.012054633947722236 25.573165982867945 10.644389897605214
    vertex 1.9999999999999847 8.539534982867902 10.644528326381991
    vertex 1.9999999999999847 25.573165982867945 10.644528326381991
  endloop
endfacet
facet normal -0.0 1.0 -0.0
  outer loop
    vertex 0.011863877890148089 8.539534982867902 13.38379589096365
    vertex 1.9999999999999847 8.539534982867902 10.644528326381991
    vertex 0.012054633947722236 8.539534982867902 10.644389897605214
  endloop
endfacet
facet normal -0.0 1.0 -0.0
  outer loop
    vertex 1.9999999999999847 8.539534982867902 10.644528326381991
    vertex 0.011863877890148089 8.539534982867902 13.38379589096365
    vertex 1.9999999999999847 8.539534982867902 13.383934333023547
  endloop
endfacet
facet normal 6.96340949814652e-05 -1.655528199084262e-16 -0.9999999975755465
  outer loop
    vertex 1.9999999999999847 25.573165982867945 13.383934333023547
    vertex 0.011863877890148089 8.539534982867902 13.38379589096365
    vertex 0.011863877890148089 25.573165982867945 13.383795890963645
  endloop
endfacet
facet normal 6.96340949814652e-05 -1.655528199084262e-16 -0.9999999975755465
  outer loop
    vertex 0.011863877890148089 8.539534982867902 13.38379589096365
    vertex 1.9999999999999847 25.573165982867945 13.383934333023547
    vertex 1.9999999999999847 8.539534982867902 13.383934333023547
  endloop
endfacet
facet normal -0.0 1.0 -0.0
  outer loop
    vertex 0.003727117428602966 69.22005299595838 13.35739484927577
    vertex 1.9999999999999847 69.22005299595838 10.618127851290067
    vertex 0.003917873486222234 69.22005299595838 10.617988855917341
  endloop
endfacet
facet normal -0.0 1.0 -0.0
  outer loop
    vertex 1.9999999999999847 69.22005299595838 10.618127851290067
    vertex 0.003727117428602966 69.22005299595838 13.35739484927577
    vertex 1.9999999999999847 69.22005299595838 13.35753385793163
  endloop
endfacet
facet normal 6.963409498497203e-05 0.0 -0.9999999975755465
  outer loop
    vertex 1.9999999999999847 86.25368399595833 13.35753385793163
    vertex 0.003727117428602966 69.22005299595838 13.35739484927577
    vertex 0.003727117428602966 86.25368399595833 13.35739484927577
  endloop
endfacet
facet normal 6.963409498497203e-05 0.0 -0.9999999975755465
  outer loop
    vertex 0.003727117428602966 69.22005299595838 13.35739484927577
    vertex 1.9999999999999847 86.25368399595833 13.35753385793163
    vertex 1.9999999999999847 69.22005299595838 13.35753385793163
  endloop
endfacet
facet normal 0.0 -1.0 0.0
  outer loop
    vertex 1.9999999999999847 86.25368399595833 10.618127851290067
    vertex 0.003727117428602966 86.25368399595833 13.35739484927577
    vertex 0.003917873486222234 86.25368399595833 10.617988855917334
  endloop
endfacet
facet normal 0.0 -1.0 0.0
  outer loop
    vertex 0.003727117428602966 86.25368399595833 13.35739484927577
    vertex 1.9999999999999847 86.25368399595833 10.618127851290067
    vertex 1.9999999999999847 86.25368399595833 13.35753385793163
  endloop
endfacet
facet normal -6.963409498379349e-05 1.6555281990842797e-16 0.9999999975755465
  outer loop
    vertex 1.9999999999999847 69.22005299595838 10.618127851290067
    vertex 0.003917873486222234 86.25368399595833 10.617988855917334
    vertex 0.003917873486222234 69.22005299595838 10.617988855917341
  endloop
endfacet
facet normal -6.963409498379349e-05 1.6555281990842797e-16 0.9999999975755465
  outer loop
    vertex 0.003917873486222234 86.25368399595833 10.617988855917334
    vertex 1.9999999999999847 69.22005299595838 10.618127851290067
    vertex 1.9999999999999847 86.25368399595833 10.618127851290067
  endloop
endfacet
facet normal -0.0 1.0 -0.0
  outer loop
    vertex -61.81066514927339 1.9999999999999962 3.271112409517305
    vertex -49.82246963848341 1.9999999999999962 2.1246744122766463
    vertex -49.82747411785433 1.9999999999999962 0.12468067348988758
  endloop
endfacet
facet normal -0.0 1.0 -0.0
  outer loop
    vertex -49.82246963848341 1.9999999999999962 2.1246744122766463
    vertex -9.023892744153272e-14 1.9999999999999962 42.00000000000004
    vertex 0.005004479370939307 1.9999999999999962 1.999993738786753
  endloop
endfacet
facet normal -0.0 1.0 -0.0
  outer loop
    vertex -9.023892744153272e-14 1.9999999999999962 42.00000000000004
    vertex -49.82246963848341 1.9999999999999962 2.1246744122766463
    vertex -61.81066514927339 1.9999999999999962 3.271112409517305
  endloop
endfacet
facet normal -0.0 1.0 -0.0
  outer loop
    vertex -9.023892744153272e-14 1.9999999999999962 42.00000000000004
    vertex -61.81066514927339 1.9999999999999962 3.271112409517305
    vertex -69.66206732896936 1.9999999999999962 7.610870493070825
  endloop
endfacet
facet normal -0.0 1.0 -0.0
  outer loop
    vertex -9.023892744153272e-14 1.9999999999999962 42.00000000000004
    vertex -69.66206732896936 1.9999999999999962 7.610870493070825
    vertex -72.8466205734513 1.9999999999999962 12.848207582545548
  endloop
endfacet
facet normal -0.0 1.0 -0.0
  outer loop
    vertex -9.023892744153272e-14 1.9999999999999962 42.00000000000004
    vertex -72.8466205734513 1.9999999999999962 12.848207582545548
    vertex -71.14730284183085 1.9999999999999962 18.62620781040255
  endloop
endfacet
facet normal -0.0 1.0 -0.0
  outer loop
    vertex -9.023892744153272e-14 1.9999999999999962 42.00000000000004
    vertex -71.14730284183085 1.9999999999999962 18.62620781040255
    vertex -64.67991982926281 1.9999999999999962 24.551110009710147
  endloop
endfacet
facet normal -0.0 1.0 -0.0
  outer loop
    vertex -9.023892744153272e-14 1.9999999999999962 42.00000000000004
    vertex -64.67991982926281 1.9999999999999962 24.551110009710147
    vertex -53.88521300019795 1.9999999999999962 30.21914188694942
  endloop
endfacet
facet normal -0.0 1.0 -0.0
  outer loop
    vertex -9.023892744153272e-14 1.9999999999999962 42.00000000000004
    vertex -53.88521300019795 1.9999999999999962 30.21914188694942
    vertex -39.49882378593977 1.9999999999999962 35.244036436552065
  endloop
endfacet
facet normal -0.0 1.0 -0.0
  outer loop
    vertex -9.023892744153272e-14 1.9999999999999962 42.00000000000004
    vertex -39.49882378593977 1.9999999999999962 35.244036436552065
    vertex -22.501160836808705 1.9999999999999962 39.28335539899367
  endloop
endfacet
facet normal -0.0 1.0 -0.0
  outer loop
    vertex -9.023892744153272e-14 1.9999999999999962 42.00000000000004
    vertex -22.501160836808705 1.9999999999999962 39.28335539899367
    vertex -4.0505867928214725 1.9999999999999962 42.06182586227378
  endloop
endfacet
facet normal -1.807144020965538e-16 1.0 -4.550384031403378e-16
  outer loop
    vertex -49.82747411785433 0.0 0.12468067348988758
    vertex -9.023892744153272e-14 0.0 42.00000000000004
    vertex 0.0 0.0 0.0
  endloop
endfacet
facet normal -1.807144020965538e-16 1.0 -4.550384031403378e-16
  outer loop
    vertex -9.023892744153272e-14 0.0 42.00000000000004
    vertex -49.82747411785433 0.0 0.12468067348988758
    vertex -61.81066514927339 0.0 3.271112409517305
  endloop
endfacet
facet normal -1.807144020965538e-16 1.0 -4.550384031403378e-16
  outer loop
    vertex -9.023892744153272e-14 0.0 42.00000000000004
    vertex -61.81066514927339 0.0 3.271112409517305
    vertex -69.66206732896936 0.0 7.610870493070831
  endloop
endfacet
facet normal -1.807144020965538e-16 1.0 -4.550384031403378e-16
  outer loop
    vertex -9.023892744153272e-14 0.0 42.00000000000004
    vertex -69.66206732896936 0.0 7.610870493070831
    vertex -72.8466205734513 0.0 12.848207582545548
  endloop
endfacet
facet normal -1.807144020965538e-16 1.0 -4.550384031403378e-16
  outer loop
    vertex -9.023892744153272e-14 0.0 42.00000000000004
    vertex -72.8466205734513 0.0 12.848207582545548
    vertex -71.14730284183085 0.0 18.62620781040255
  endloop
endfacet
facet normal -1.807144020965538e-16 1.0 -4.550384031403378e-16
  outer loop
    vertex -9.023892744153272e-14 0.0 42.00000000000004
    vertex -71.14730284183085 0.0 18.62620781040255
    vertex -64.67991982926281 0.0 24.551110009710147
  endloop
endfacet
facet normal -1.807144020965538e-16 1.0 -4.550384031403378e-16
  outer loop
    vertex -9.023892744153272e-14 0.0 42.00000000000004
    vertex -64.67991982926281 0.0 24.551110009710147
    vertex -53.88521300019795 0.0 30.21914188694942
  endloop
endfacet
facet normal -1.807144020965538e-16 1.0 -4.550384031403378e-16
  outer loop
    vertex -9.023892744153272e-14 0.0 42.00000000000004
    vertex -53.88521300019795 0.0 30.21914188694942
    vertex -39.49882378593977 0.0 35.244036436552065
  endloop
endfacet
facet normal -1.807144020965538e-16 1.0 -4.550384031403378e-16
  outer loop
    vertex -9.023892744153272e-14 0.0 42.00000000000004
    vertex -39.49882378593977 0.0 35.244036436552065
    vertex -22.501160836808705 4.511946372076636e-14 39.28335539899367
  endloop
endfacet
facet normal -1.807144020965538e-16 1.0 -4.550384031403378e-16
  outer loop
    vertex -9.023892744153272e-14 0.0 42.00000000000004
    vertex -22.501160836808705 4.511946372076636e-14 39.28335539899367
    vertex -4.0505867928214725 4.511946372076636e-14 42.06182586227378
  endloop
endfacet
facet normal -0.9999993098003025 0.0011658144819495502 -0.00014586127702171064
  outer loop
    vertex 0.007785093340789828 8.539534896651556 36.18384853436862
    vertex 0.005004479370939307 1.9999999999999962 1.999993738786753
    vertex -9.023892744153272e-14 1.9999999999999962 42.00000000000004
  endloop
endfacet
facet normal -0.9999993098003025 0.0011658144819495502 -0.00014586127702171064
  outer loop
    vertex 0.005004479370939307 1.9999999999999962 1.999993738786753
    vertex 0.007785093340789828 8.539534896651556 36.18384853436862
    vertex 0.007975849398409096 8.539534896651556 33.4444425410102
  endloop
endfacet
facet normal -0.9999993098003025 0.0011658144819495502 -0.00014586127702171064
  outer loop
    vertex 0.005004479370939307 1.9999999999999962 1.999993738786753
    vertex 0.007975849398409096 8.539534896651556 33.4444425410102
    vertex 0.012054633947722236 8.539534982867902 10.644389897605214
  endloop
endfacet
facet normal -0.9999993098003025 0.0011658144819495502 -0.00014586127702171064
  outer loop
    vertex 0.012054633947722236 8.539534982867902 10.644389897605214
    vertex 0.007975849398409096 8.539534896651556 33.4444425410102
    vertex 0.011863877890148089 8.539534982867902 13.38379589096365
  endloop
endfacet
facet normal -0.9999991041698959 -7.551475725660213e-21 -0.0013385288214659522
  outer loop
    vertex -9.023892744153272e-14 93.00000000000009 42.00000000000004
    vertex 0.007785093340789828 8.539534896651556 36.18384853436862
    vertex -9.023892744153272e-14 1.9999999999999962 42.00000000000004
  endloop
endfacet
facet normal -0.9999991041698959 0.0 -0.001338528821465956
  outer loop
    vertex -9.023892744153272e-14 93.00000000000009 42.00000000000004
    vertex 0.007785093340789828 25.5731658966516 36.18384853436862
    vertex 0.007785093340789828 8.539534896651556 36.18384853436862
  endloop
endfacet
facet normal -0.9999999915855319 -0.00010945331976961413 -6.96340945725593e-05
  outer loop
    vertex -9.023892744153272e-14 93.00000000000009 42.00000000000004
    vertex 0.007975849398409096 25.5731658966516 33.44444254101018
    vertex 0.007785093340789828 25.5731658966516 36.18384853436862
  endloop
endfacet
facet normal -0.9999993387528174 -0.00026041746417363755 0.0011201235075441426
  outer loop
    vertex -9.023892744153272e-14 93.00000000000009 42.00000000000004
    vertex -0.0003516671207101751 69.22005290974204 36.157447492680745
    vertex 0.007975849398409096 25.5731658966516 33.44444254101018
  endloop
endfacet
facet normal -0.9999999746224797 -0.00011257770424060548 -0.00019514430684752966
  outer loop
    vertex -0.0001609110630909072 86.25368390974202 33.418041499322314
    vertex 0.003727117428602966 69.22005299595838 13.35739484927577
    vertex -0.0001609110630909072 69.22005290974204 33.418041499322314
  endloop
endfacet
facet normal -0.9999999746224797 -0.00011257770424060548 -0.00019514430684752966
  outer loop
    vertex 0.003727117428602966 69.22005299595838 13.35739484927577
    vertex -0.0001609110630909072 86.25368390974202 33.418041499322314
    vertex 0.003727117428602966 86.25368399595833 13.35739484927577
  endloop
endfacet
facet normal -0.9999999746224797 -0.00011257770424060548 -0.00019514430684752966
  outer loop
    vertex 0.003727117428602966 86.25368399595833 13.35739484927577
    vertex -0.0001609110630909072 86.25368390974202 33.418041499322314
    vertex -9.023892744153272e-14 93.00000000000009 42.00000000000004
  endloop
endfacet
facet normal -0.9999999746224797 -0.00011257770424060548 -0.00019514430684752966
  outer loop
    vertex 0.003727117428602966 86.25368399595833 13.35739484927577
    vertex -9.023892744153272e-14 93.00000000000009 42.00000000000004
    vertex 0.003917873486222234 86.25368399595833 10.617988855917334
  endloop
endfacet
facet normal -0.9999999746224797 -0.00011257770424060548 -0.00019514430684752966
  outer loop
    vertex 0.003917873486222234 86.25368399595833 10.617988855917334
    vertex -9.023892744153272e-14 93.00000000000009 42.00000000000004
    vertex 0.005004479370939307 92.95973100000008 1.999993738786753
  endloop
endfacet
facet normal -0.9999999746224797 -0.00011257770424060548 -0.00019514430684752966
  outer loop
    vertex 0.007975849398409096 25.5731658966516 33.44444254101018
    vertex 0.011863877890148089 8.539534982867902 13.38379589096365
    vertex 0.007975849398409096 8.539534896651556 33.4444425410102
  endloop
endfacet
facet normal -0.9999999746224797 -0.00011257770424060548 -0.00019514430684752966
  outer loop
    vertex 0.011863877890148089 8.539534982867902 13.38379589096365
    vertex 0.007975849398409096 25.5731658966516 33.44444254101018
    vertex 0.011863877890148089 25.573165982867945 13.383795890963645
  endloop
endfacet
facet normal -0.9999999746224797 -0.00011257770424060548 -0.00019514430684752966
  outer loop
    vertex 0.011863877890148089 25.573165982867945 13.383795890963645
    vertex 0.007975849398409096 25.5731658966516 33.44444254101018
    vertex -0.0003516671207101751 69.22005290974204 36.157447492680745
  endloop
endfacet
facet normal -0.9999999746224797 -0.00011257770424060548 -0.00019514430684752966
  outer loop
    vertex 0.011863877890148089 25.573165982867945 13.383795890963645
    vertex -0.0003516671207101751 69.22005290974204 36.157447492680745
    vertex 0.012054633947722236 25.573165982867945 10.644389897605214
  endloop
endfacet
facet normal -0.9999999746224797 -0.00011257770424060548 -0.00019514430684752966
  outer loop
    vertex 0.012054633947722236 25.573165982867945 10.644389897605214
    vertex -0.0003516671207101751 69.22005290974204 36.157447492680745
    vertex -0.0001609110630909072 69.22005290974204 33.418041499322314
  endloop
endfacet
facet normal -0.9999999746224797 -0.00011257770424060548 -0.00019514430684752966
  outer loop
    vertex 0.012054633947722236 25.573165982867945 10.644389897605214
    vertex -0.0001609110630909072 69.22005290974204 33.418041499322314
    vertex 0.003917873486222234 69.22005299595838 10.617988855917341
  endloop
endfacet
facet normal -0.9999999746224797 -0.00011257770424060548 -0.00019514430684752966
  outer loop
    vertex 0.012054633947722236 25.573165982867945 10.644389897605214
    vertex 0.003917873486222234 69.22005299595838 10.617988855917341
    vertex 0.005004479370939307 92.95973100000008 1.999993738786753
  endloop
endfacet
facet normal -0.9999999746224797 -0.00011257770424060548 -0.00019514430684752966
  outer loop
    vertex 0.003917873486222234 69.22005299595838 10.617988855917341
    vertex -0.0001609110630909072 69.22005290974204 33.418041499322314
    vertex 0.003727117428602966 69.22005299595838 13.35739484927577
  endloop
endfacet
facet normal -0.9999999746224797 -0.00011257770424060548 -0.00019514430684752966
  outer loop
    vertex 0.005004479370939307 92.95973100000008 1.999993738786753
    vertex 0.003917873486222234 69.22005299595838 10.617988855917341
    vertex 0.003917873486222234 86.25368399595833 10.617988855917334
  endloop
endfacet
facet normal -0.9999999981885419 -3.337234523141077e-21 6.019066487504438e-05
  outer loop
    vertex -9.023892744153272e-14 93.00000000000009 42.00000000000004
    vertex -0.0003516671207101751 86.25368390974202 36.157447492680745
    vertex -0.0003516671207101751 69.22005290974204 36.157447492680745
  endloop
endfacet
facet normal -0.9999999912549665 0.00011243291317838471 -6.963409454954089e-05
  outer loop
    vertex -9.023892744153272e-14 93.00000000000009 42.00000000000004
    vertex -0.0001609110630909072 86.25368390974202 33.418041499322314
    vertex -0.0003516671207101751 86.25368390974202 36.157447492680745
  endloop
endfacet
facet normal -0.9978974126907975 -0.06481322174601772 5.649255034910786e-06
  outer loop
    vertex -9.023892744153272e-14 93.00000000000009 42.00000000000004
    vertex 0.0 92.95973100000008 -5.639932965095795e-15
    vertex 0.005004479370939307 92.95973100000008 1.999993738786753
  endloop
endfacet
facet normal -0.9978974126907975 -0.06481322174601772 5.649255034910786e-06
  outer loop
    vertex 0.0 92.95973100000008 -5.639932965095795e-15
    vertex -9.023892744153272e-14 93.00000000000009 42.00000000000004
    vertex 0.0 93.00000000000009 0.0
  endloop
endfacet
facet normal -0.9999996674187643 0.0 0.0008155748652081028
  outer loop
    vertex 0.012054633947722236 8.539534982867902 10.644389897605214
    vertex 0.005004479370939307 92.95973100000008 1.999993738786753
    vertex 0.005004479370939307 1.9999999999999962 1.999993738786753
  endloop
endfacet
facet normal -0.9999996674187643 0.0 0.0008155748652081028
  outer loop
    vertex 0.005004479370939307 92.95973100000008 1.999993738786753
    vertex 0.012054633947722236 8.539534982867902 10.644389897605214
    vertex 0.012054633947722236 25.573165982867945 10.644389897605214
  endloop
endfacet
facet normal -1.0 0.0 0.0
  outer loop
    vertex -49.82747411785433 1.9999999999999962 0.12468067348988758
    vertex -49.82747411785433 0.0 -1.8753193265101122
    vertex -49.82747411785433 0.0 0.12468067348988758
  endloop
endfacet
facet normal -1.0 0.0 0.0
  outer loop
    vertex -49.82747411785433 0.0 -1.8753193265101122
    vertex -49.82747411785433 1.9999999999999962 0.12468067348988758
    vertex -49.82747411785433 1.9999999999999962 -1.8753193265101122
  endloop
endfacet
facet normal 1.0 -0.0 -0.0
  outer loop
    vertex -49.82747411785433 95.00000000000006 -1.8753193265101122
    vertex -49.82747411785433 93.00000000000009 0.12468067348989322
    vertex -49.82747411785433 93.00000000000009 -1.8753193265101122
  endloop
endfacet
facet normal 1.0 -0.0 -0.0
  outer loop
    vertex -49.82747411785433 93.00000000000009 0.12468067348989322
    vertex -49.82747411785433 95.00000000000006 -1.8753193265101122
    vertex -49.82747411785433 95.00000000000006 0.12468067348988758
  endloop
endfacet
facet normal -0.0 1.0 -0.0
  outer loop
    vertex -49.82747411785433 0.0 0.12468067348988758
    vertex 0.0 0.0 -1.8753193265101122
    vertex -49.82747411785433 0.0 -1.8753193265101122
  endloop
endfacet
facet normal -0.0 1.0 -0.0
  outer loop
    vertex 0.0 0.0 -1.8753193265101122
    vertex -49.82747411785433 0.0 0.12468067348988758
    vertex 0.0 0.0 0.0
  endloop
endfacet
facet normal 0.7071067811865416 -0.7071067811865535 0.0
  outer loop
    vertex 2.0000000000000298 1.9999999999999962 0.0
    vertex 0.0 0.0 -1.8753193265101122
    vertex 2.0000000000000298 1.9999999999999962 -1.8753193265101122
  endloop
endfacet
facet normal 0.7071067811865416 -0.7071067811865535 0.0
  outer loop
    vertex 0.0 0.0 -1.8753193265101122
    vertex 2.0000000000000298 1.9999999999999962 0.0
    vertex 0.0 0.0 0.0
  endloop
endfacet
facet normal 0.0 0.0 -1.0
  outer loop
    vertex 0.0 95.00000000000006 -1.8753193265101122
    vertex -49.82747411785433 93.00000000000009 -1.8753193265101122
    vertex -49.82747411785433 95.00000000000006 -1.8753193265101122
  endloop
endfacet
facet normal 0.0 0.0 -1.0
  outer loop
    vertex -49.82747411785433 93.00000000000009 -1.8753193265101122
    vertex 0.0 95.00000000000006 -1.8753193265101122
    vertex -49.82747411785433 1.9999999999999962 -1.8753193265101122
  endloop
endfacet
facet normal 0.0 0.0 -1.0
  outer loop
    vertex -49.82747411785433 1.9999999999999962 -1.8753193265101122
    vertex 0.0 95.00000000000006 -1.8753193265101122
    vertex -49.82747411785433 0.0 -1.8753193265101122
  endloop
endfacet
facet normal 0.0 0.0 -1.0
  outer loop
    vertex -49.82747411785433 0.0 -1.8753193265101122
    vertex 0.0 95.00000000000006 -1.8753193265101122
    vertex 0.0 0.0 -1.8753193265101122
  endloop
endfacet
facet normal 0.0 0.0 -1.0
  outer loop
    vertex 0.0 0.0 -1.8753193265101122
    vertex 0.0 95.00000000000006 -1.8753193265101122
    vertex 2.0000000000000298 93.00000000000009 -1.8753193265101122
  endloop
endfacet
facet normal 0.0 0.0 -1.0
  outer loop
    vertex 0.0 0.0 -1.8753193265101122
    vertex 2.0000000000000298 93.00000000000009 -1.8753193265101122
    vertex 2.0000000000000298 1.9999999999999962 -1.8753193265101122
  endloop
endfacet
facet normal -0.0 1.0 -0.0
  outer loop
    vertex -49.82747411785433 95.00000000000006 0.12468067348988758
    vertex 0.0 95.00000000000006 -1.8753193265101122
    vertex -49.82747411785433 95.00000000000006 -1.8753193265101122
  endloop
endfacet
facet normal -0.0 1.0 -0.0
  outer loop
    vertex 0.0 95.00000000000006 -1.8753193265101122
    vertex -49.82747411785433 95.00000000000006 0.12468067348988758
    vertex 0.0 95.00000000000006 0.0
  endloop
endfacet
facet normal 1.0 -0.0 -0.0
  outer loop
    vertex 2.0000000000000298 93.00000000000009 -1.8753193265101122
    vertex 2.0000000000000298 1.9999999999999962 0.0
    vertex 2.0000000000000298 1.9999999999999962 -1.8753193265101122
  endloop
endfacet
facet normal 1.0 -0.0 -0.0
  outer loop
    vertex 2.0000000000000298 1.9999999999999962 0.0
    vertex 2.0000000000000298 93.00000000000009 -1.8753193265101122
    vertex 2.0000000000000298 93.00000000000009 0.0
  endloop
endfacet
facet normal 0.7071067811865376 0.7071067811865575 -0.0
  outer loop
    vertex 0.0 95.00000000000006 0.0
    vertex 2.0000000000000298 93.00000000000009 -1.8753193265101122
    vertex 0.0 95.00000000000006 -1.8753193265101122
  endloop
endfacet
facet normal 0.7071067811865376 0.7071067811865575 -0.0
  outer loop
    vertex 2.0000000000000298 93.00000000000009 -1.8753193265101122
    vertex 0.0 95.00000000000006 0.0
    vertex 2.0000000000000298 93.00000000000009 0.0
  endloop
endfacet
facet normal 0.002502239685456488 5.956418176658766e-20 0.999996869393378
  outer loop
    vertex 0.005004479370939307 1.9999999999999962 1.999993738786753
    vertex -49.82246963848341 93.00000000000009 2.1246744122766463
    vertex -49.82246963848341 1.9999999999999962 2.1246744122766463
  endloop
endfacet
facet normal 0.002502239685456488 5.956418176658766e-20 0.999996869393378
  outer loop
    vertex -49.82246963848341 93.00000000000009 2.1246744122766463
    vertex 0.005004479370939307 1.9999999999999962 1.999993738786753
    vertex 0.005004479370939307 92.95973100000008 1.999993738786753
  endloop
endfacet
facet normal -0.9999992173488551 -2.5250541093647262e-20 0.001251120169125808
  outer loop
    vertex -49.82246963848341 93.00000000000009 2.1246744122766463
    vertex -49.82747411785433 1.9999999999999962 0.12468067348988758
    vertex -49.82246963848341 1.9999999999999962 2.1246744122766463
  endloop
endfacet
facet normal -0.9999992173488551 -2.5250541093647262e-20 0.001251120169125808
  outer loop
    vertex -49.82747411785433 1.9999999999999962 0.12468067348988758
    vertex -49.82246963848341 93.00000000000009 2.1246744122766463
    vertex -49.82747411785433 1.9999999999999962 -1.8753193265101122
  endloop
endfacet
facet normal -0.9999992173488551 -2.5250541093647262e-20 0.001251120169125808
  outer loop
    vertex -49.82747411785433 1.9999999999999962 -1.8753193265101122
    vertex -49.82246963848341 93.00000000000009 2.1246744122766463
    vertex -49.82747411785433 93.00000000000009 -1.8753193265101122
  endloop
endfacet
facet normal -0.9999992173488551 -2.5250541093647262e-20 0.001251120169125808
  outer loop
    vertex -49.82747411785433 93.00000000000009 -1.8753193265101122
    vertex -49.82246963848341 93.00000000000009 2.1246744122766463
    vertex -49.82747411785433 93.00000000000009 0.12468067348989322
  endloop
endfacet
facet normal 0.0008081632759862692 0.9999996734339617 -2.0222245522949365e-06
  outer loop
    vertex -49.82747411785433 93.00000000000009 0.12468067348989322
    vertex 0.005004479370939307 92.95973100000008 1.999993738786753
    vertex 0.0 92.95973100000008 -5.639932965095795e-15
  endloop
endfacet
facet normal 0.0008081632759862692 0.9999996734339617 -2.0222245522949365e-06
  outer loop
    vertex 0.005004479370939307 92.95973100000008 1.999993738786753
    vertex -49.82747411785433 93.00000000000009 0.12468067348989322
    vertex -49.82246963848341 93.00000000000009 2.1246744122766463
  endloop
endfacet
facet normal -0.015261655862200164 6.194771739890364e-19 -0.9998835341480246
  outer loop
    vertex -9.023892744153272e-14 95.00000000000006 42.00000000000004
    vertex -4.0505867928214725 93.00000000000013 42.06182586227378
    vertex -4.0505867928214725 95.00000000000006 42.06182586227378
  endloop
endfacet
facet normal -0.015261655862200164 6.194771739890364e-19 -0.9998835341480246
  outer loop
    vertex -4.0505867928214725 93.00000000000013 42.06182586227378
    vertex -9.023892744153272e-14 95.00000000000006 42.00000000000004
    vertex -9.023892744153272e-14 93.00000000000009 42.00000000000004
  endloop
endfacet
facet normal -0.0 1.0 -0.0
  outer loop
    vertex -49.82747411785433 95.00000000000006 0.12468067348988758
    vertex -9.023892744153272e-14 95.00000000000006 42.00000000000004
    vertex 0.0 95.00000000000006 0.0
  endloop
endfacet
facet normal -0.0 1.0 -0.0
  outer loop
    vertex -9.023892744153272e-14 95.00000000000006 42.00000000000004
    vertex -49.82747411785433 95.00000000000006 0.12468067348988758
    vertex -61.81066514927339 95.00000000000006 3.271112409517305
  endloop
endfacet
facet normal -0.0 1.0 -0.0
  outer loop
    vertex -9.023892744153272e-14 95.00000000000006 42.00000000000004
    vertex -61.81066514927339 95.00000000000006 3.271112409517305
    vertex -69.66206732896936 95.00000000000006 7.610870493070831
  endloop
endfacet
facet normal -0.0 1.0 -0.0
  outer loop
    vertex -9.023892744153272e-14 95.00000000000006 42.00000000000004
    vertex -69.66206732896936 95.00000000000006 7.610870493070831
    vertex -72.8466205734513 95.00000000000006 12.848207582545548
  endloop
endfacet
facet normal -0.0 1.0 -0.0
  outer loop
    vertex -9.023892744153272e-14 95.00000000000006 42.00000000000004
    vertex -72.8466205734513 95.00000000000006 12.848207582545548
    vertex -71.14730284183085 95.00000000000006 18.62620781040255
  endloop
endfacet
facet normal -0.0 1.0 -0.0
  outer loop
    vertex -9.023892744153272e-14 95.00000000000006 42.00000000000004
    vertex -71.14730284183085 95.00000000000006 18.62620781040255
    vertex -64.67991982926281 95.00000000000006 24.551110009710147
  endloop
endfacet
facet normal -0.0 1.0 -0.0
  outer loop
    vertex -9.023892744153272e-14 95.00000000000006 42.00000000000004
    vertex -64.67991982926281 95.00000000000006 24.551110009710147
    vertex -53.88521300019795 95.00000000000006 30.21914188694942
  endloop
endfacet
facet normal -0.0 1.0 -0.0
  outer loop
    vertex -9.023892744153272e-14 95.00000000000006 42.00000000000004
    vertex -53.88521300019795 95.00000000000006 30.21914188694942
    vertex -39.49882378593977 95.00000000000006 35.244036436552065
  endloop
endfacet
facet normal -0.0 1.0 -0.0
  outer loop
    vertex -9.023892744153272e-14 95.00000000000006 42.00000000000004
    vertex -39.49882378593977 95.00000000000006 35.244036436552065
    vertex -22.501160836808705 95.00000000000006 39.28335539899367
  endloop
endfacet
facet normal -0.0 1.0 -0.0
  outer loop
    vertex -9.023892744153272e-14 95.00000000000006 42.00000000000004
    vertex -22.501160836808705 95.00000000000006 39.28335539899367
    vertex -4.0505867928214725 95.00000000000006 42.06182586227378
  endloop
endfacet
facet normal 0.2539618660144085 1.3531015152219207e-15 0.9672142320140247
  outer loop
    vertex -49.82747411785433 93.00000000000009 0.12468067348989322
    vertex -61.81066514927339 95.00000000000006 3.271112409517305
    vertex -61.81066514927339 93.00000000000009 3.271112409517305
  endloop
endfacet
facet normal 0.2539618660144085 1.3531015152219207e-15 0.9672142320140247
  outer loop
    vertex -61.81066514927339 95.00000000000006 3.271112409517305
    vertex -49.82747411785433 93.00000000000009 0.12468067348989322
    vertex -49.82747411785433 95.00000000000006 0.12468067348988758
  endloop
endfacet
facet normal 0.48375658414643063 1.2243801906839033e-15 0.8752025864306945
  outer loop
    vertex -61.81066514927339 93.00000000000009 3.271112409517305
    vertex -69.66206732896936 95.00000000000006 7.610870493070831
    vertex -69.66206732896936 93.00000000000009 7.610870493070837
  endloop
endfacet
facet normal 0.48375658414643063 1.2243801906839033e-15 0.8752025864306945
  outer loop
    vertex -69.66206732896936 95.00000000000006 7.610870493070831
    vertex -61.81066514927339 93.00000000000009 3.271112409517305
    vertex -61.81066514927339 95.00000000000006 3.271112409517305
  endloop
endfacet
facet normal 0.8544441730964216 7.268242048443204e-16 0.519543217703371
  outer loop
    vertex -69.66206732896936 95.00000000000006 7.610870493070831
    vertex -72.8466205734513 93.00000000000009 12.848207582545548
    vertex -69.66206732896936 93.00000000000009 7.610870493070837
  endloop
endfacet
facet normal 0.8544441730964216 7.268242048443204e-16 0.519543217703371
  outer loop
    vertex -72.8466205734513 93.00000000000009 12.848207582545548
    vertex -69.66206732896936 95.00000000000006 7.610870493070831
    vertex -72.8466205734513 95.00000000000006 12.848207582545548
  endloop
endfacet
facet normal 0.9593697309518155 -0.0 -0.2821519436995623
  outer loop
    vertex -72.8466205734513 95.00000000000006 12.848207582545548
    vertex -71.14730284183085 93.00000000000009 18.62620781040255
    vertex -72.8466205734513 93.00000000000009 12.848207582545548
  endloop
endfacet
facet normal 0.9593697309518155 -0.0 -0.2821519436995623
  outer loop
    vertex -71.14730284183085 93.00000000000009 18.62620781040255
    vertex -72.8466205734513 95.00000000000006 12.848207582545548
    vertex -71.14730284183085 95.00000000000006 18.62620781040255
  endloop
endfacet
facet normal 0.6755057654829026 0.0 -0.7373547048736842
  outer loop
    vertex -64.67991982926281 95.00000000000006 24.551110009710147
    vertex -71.14730284183085 93.00000000000009 18.62620781040255
    vertex -71.14730284183085 95.00000000000006 18.62620781040255
  endloop
endfacet
facet normal 0.6755057654829026 0.0 -0.7373547048736842
  outer loop
    vertex -71.14730284183085 93.00000000000009 18.62620781040255
    vertex -64.67991982926281 95.00000000000006 24.551110009710147
    vertex -64.67991982926281 93.00000000000009 24.551110009710147
  endloop
endfacet
facet normal 0.4648860297336847 0.0 -0.8853705322397236
  outer loop
    vertex -53.88521300019795 95.00000000000006 30.21914188694942
    vertex -64.67991982926281 93.00000000000009 24.551110009710147
    vertex -64.67991982926281 95.00000000000006 24.551110009710147
  endloop
endfacet
facet normal 0.4648860297336847 0.0 -0.8853705322397236
  outer loop
    vertex -64.67991982926281 93.00000000000009 24.551110009710147
    vertex -53.88521300019795 95.00000000000006 30.21914188694942
    vertex -53.88521300019795 93.00000000000009 30.21914188694942
  endloop
endfacet
facet normal 0.3297457726969196 0.0 -0.9440697672251303
  outer loop
    vertex -39.49882378593977 95.00000000000006 35.244036436552065
    vertex -53.88521300019795 93.00000000000009 30.21914188694942
    vertex -53.88521300019795 95.00000000000006 30.21914188694942
  endloop
endfacet
facet normal 0.3297457726969196 0.0 -0.9440697672251303
  outer loop
    vertex -53.88521300019795 93.00000000000009 30.21914188694942
    vertex -39.49882378593977 95.00000000000006 35.244036436552065
    vertex -39.49882378593977 93.00000000000009 35.244036436552065
  endloop
endfacet
facet normal 0.231201056213964 0.0 -0.9729059932005494
  outer loop
    vertex -22.501160836808705 95.00000000000006 39.28335539899367
    vertex -39.49882378593977 93.00000000000009 35.244036436552065
    vertex -39.49882378593977 95.00000000000006 35.244036436552065
  endloop
endfacet
facet normal 0.231201056213964 0.0 -0.9729059932005494
  outer loop
    vertex -39.49882378593977 93.00000000000009 35.244036436552065
    vertex -22.501160836808705 95.00000000000006 39.28335539899367
    vertex -22.501160836808705 93.00000000000009 39.28335539899367
  endloop
endfacet
facet normal 0.1489109342942367 -5.381342907965487e-18 -0.9888506124019024
  outer loop
    vertex -4.0505867928214725 95.00000000000006 42.06182586227378
    vertex -22.501160836808705 93.00000000000009 39.28335539899367
    vertex -22.501160836808705 95.00000000000006 39.28335539899367
  endloop
endfacet
facet normal 0.1489109342942367 -5.381342907965487e-18 -0.9888506124019024
  outer loop
    vertex -22.501160836808705 93.00000000000009 39.28335539899367
    vertex -4.0505867928214725 95.00000000000006 42.06182586227378
    vertex -4.0505867928214725 93.00000000000013 42.06182586227378
  endloop
endfacet
facet normal -1.2141786564479254e-16 1.0 -2.4491889621108416e-16
  outer loop
    vertex -6.501851570049485 93.00000000000009 0.09779132110004989
    vertex -9.023892744153272e-14 93.00000000000009 42.00000000000004
    vertex 0.0 93.00000000000009 0.0
  endloop
endfacet
facet normal -1.2141786564479254e-16 1.0 -2.4491889621108416e-16
  outer loop
    vertex -9.023892744153272e-14 93.00000000000009 42.00000000000004
    vertex -6.501851570049485 93.00000000000009 0.09779132110004989
    vertex -49.82747411785433 93.00000000000009 0.12468067348989322
  endloop
endfacet
facet normal -1.2141786564479254e-16 1.0 -2.4491889621108416e-16
  outer loop
    vertex -9.023892744153272e-14 93.00000000000009 42.00000000000004
    vertex -49.82747411785433 93.00000000000009 0.12468067348989322
    vertex -61.81066514927339 93.00000000000009 3.271112409517305
  endloop
endfacet
facet normal -1.2141786564479254e-16 1.0 -2.4491889621108416e-16
  outer loop
    vertex -9.023892744153272e-14 93.00000000000009 42.00000000000004
    vertex -61.81066514927339 93.00000000000009 3.271112409517305
    vertex -69.66206732896936 93.00000000000009 7.610870493070837
  endloop
endfacet
facet normal -1.2141786564479254e-16 1.0 -2.4491889621108416e-16
  outer loop
    vertex -9.023892744153272e-14 93.00000000000009 42.00000000000004
    vertex -69.66206732896936 93.00000000000009 7.610870493070837
    vertex -72.8466205734513 93.00000000000009 12.848207582545548
  endloop
endfacet
facet normal -1.2141786564479254e-16 1.0 -2.4491889621108416e-16
  outer loop
    vertex -9.023892744153272e-14 93.00000000000009 42.00000000000004
    vertex -72.8466205734513 93.00000000000009 12.848207582545548
    vertex -71.14730284183085 93.00000000000009 18.62620781040255
  endloop
endfacet
facet normal -1.2141786564479254e-16 1.0 -2.4491889621108416e-16
  outer loop
    vertex -9.023892744153272e-14 93.00000000000009 42.00000000000004
    vertex -71.14730284183085 93.00000000000009 18.62620781040255
    vertex -64.67991982926281 93.00000000000009 24.551110009710147
  endloop
endfacet
facet normal -1.2141786564479254e-16 1.0 -2.4491889621108416e-16
  outer loop
    vertex -9.023892744153272e-14 93.00000000000009 42.00000000000004
    vertex -64.67991982926281 93.00000000000009 24.551110009710147
    vertex -53.88521300019795 93.00000000000009 30.21914188694942
  endloop
endfacet
facet normal -1.2141786564479254e-16 1.0 -2.4491889621108416e-16
  outer loop
    vertex -9.023892744153272e-14 93.00000000000009 42.00000000000004
    vertex -53.88521300019795 93.00000000000009 30.21914188694942
    vertex -39.49882378593977 93.00000000000009 35.244036436552065
  endloop
endfacet
facet normal -1.2141786564479254e-16 1.0 -2.4491889621108416e-16
  outer loop
    vertex -9.023892744153272e-14 93.00000000000009 42.00000000000004
    vertex -39.49882378593977 93.00000000000009 35.244036436552065
    vertex -22.501160836808705 93.00000000000009 39.28335539899367
  endloop
endfacet
facet normal -1.2141786564479254e-16 1.0 -2.4491889621108416e-16
  outer loop
    vertex -9.023892744153272e-14 93.00000000000009 42.00000000000004
    vertex -22.501160836808705 93.00000000000009 39.28335539899367
    vertex -4.0505867928214725 93.00000000000013 42.06182586227378
  endloop
endfacet
endsolid Cameratray
